<?xml version="1.0" standalone="no"?><!DOCTYPE svg PUBLIC "-//W3C//DTD SVG 1.1//EN" "http://www.w3.org/Graphics/SVG/1.1/DTD/svg11.dtd"><svg t="1587790269400" class="icon" viewBox="0 0 1024 1024" version="1.1" xmlns="http://www.w3.org/2000/svg" p-id="3431" xmlns:xlink="http://www.w3.org/1999/xlink" width="200" height="200"><defs><style type="text/css"></style></defs><path d="M833.91 389.85c0 40.41-14.45 79.49-40.68 110.02l-0.95 1.1-249.2 249.2c-14.21 14.21-37.24 14.21-51.45 0L243.19 501.74c-0.07-0.09-0.54-0.63-0.54-0.63-28.09-32.39-42.78-73.94-41.34-116.99 1.45-43.25 19.1-83.93 49.72-114.55 32.13-32.13 74.85-49.82 120.29-49.82h0.23c13.08 0.02 25.3 6.46 33.04 17.01 43.2 58.87 131.48 99.21 233.38 99.21 36.91 0 72.04-5.29 103.89-14.85 45.57-13.67 91.65 19.73 92.04 67.31 0.01 0.48 0.01 0.95 0.01 1.42z" fill="#B4E7B4" p-id="3432"></path><path d="M360.74 206.04c-48 0-93.12 18.69-127.06 52.62-31.85 31.85-50.47 74.15-52.45 119.1-0.48 11.04 8.07 20.37 19.1 20.86 0.3 0.01 0.6 0.02 0.89 0.02 10.64 0 19.5-8.39 19.97-19.12 1.53-34.93 16.01-67.8 40.77-92.57 26.64-26.64 62.12-41.17 99.87-40.9h0.19c10.96 0 19.89-8.83 20-19.82 0.1-11.04-8.77-20.08-19.82-20.18-0.48-0.01-0.97-0.01-1.46-0.01z" fill="#ffffff" p-id="3433" data-spm-anchor-id="a313x.7781069.0.i5" class=""></path><path d="M864.42 192.78c-38.74-38.73-87.63-64.25-141.38-73.79-52.52-9.32-105.96-2.86-154.53 18.67-10.1 4.48-14.66 16.29-10.18 26.39 4.48 10.1 16.29 14.66 26.39 10.18 41.27-18.29 86.69-23.77 131.34-15.86 45.65 8.1 87.17 29.78 120.09 62.68 42.68 42.69 66.18 99.43 66.18 159.78 0 54-19.31 106.22-54.39 147.05-0.02 0.03-0.05 0.05-0.07 0.08-0.7 0.83-1.42 1.64-2.14 2.46L528.38 847.77c-7.8 7.8-20.49 7.8-28.28 0L183.56 531.24c-0.5-0.57-1-1.13-1.48-1.7-0.04-0.04-0.08-0.09-0.11-0.13-36.75-42.36-56.39-96.68-55.31-152.95 1.08-56.42 22.95-110.1 61.59-151.14 7.57-8.04 7.19-20.7-0.86-28.27s-20.7-7.19-28.27 0.86c-45.45 48.28-71.18 111.42-72.45 177.79-1.27 66.15 21.82 130.02 65.03 179.86 0.81 0.95 1.62 1.88 2.47 2.81 0.24 0.26 0.48 0.52 0.73 0.77l316.93 316.92c11.7 11.7 27.06 17.54 42.43 17.54s30.73-5.85 42.43-17.54L874.4 558.32c0.26-0.26 0.51-0.53 0.76-0.8 1.08-1.2 2.13-2.4 3.16-3.62 41.27-48.07 64-109.52 64-173.06-0.01-71.03-27.67-137.82-77.9-188.06z" fill="#ffffff" p-id="3434" data-spm-anchor-id="a313x.7781069.0.i4" class=""></path><path d="M231.81 185.88c3.34 0 6.73-0.84 9.85-2.61 2.36-1.34 4.76-2.64 7.12-3.88 9.8-5.1 13.61-17.18 8.5-26.98-5.1-9.8-17.18-13.61-26.98-8.5-2.79 1.45-5.62 2.99-8.39 4.56-9.61 5.45-12.98 17.66-7.53 27.26 3.7 6.5 10.47 10.15 17.43 10.15zM319.55 156.36a228.84 228.84 0 0 1 34.1-2.56c28.79 0 56.89 5.34 83.54 15.86 16.91 6.68 32.24 17.01 48.48 27.94 2.55 1.71 5.1 3.43 7.65 5.14 45.12 30.06 83.65 47.38 121.26 54.5 10.87 2.06 21.5 3.09 31.78 3.09 5.42 0 10.75-0.29 15.95-0.86 23.43-2.59 44.04-12.05 59.61-27.36 7.88-7.75 7.98-20.41 0.23-28.28-7.74-7.87-20.41-7.98-28.28-0.23-9.11 8.96-21.54 14.53-35.96 16.12-11.13 1.23-23.2 0.63-35.89-1.77-32.17-6.09-66.02-21.5-106.52-48.49-2.5-1.67-5-3.35-7.49-5.03-17.3-11.65-35.18-23.69-56.13-31.97-31.34-12.38-64.39-18.66-98.23-18.66-13.38 0-26.86 1.01-40.07 3.01-10.92 1.65-18.44 11.84-16.79 22.76 1.65 10.93 11.84 18.45 22.76 16.79z" fill="#ffffff" p-id="3435" data-spm-anchor-id="a313x.7781069.0.i6" class=""></path></svg>